<svg xmlns="http://www.w3.org/2000/svg" width="800" height="600" viewBox="0 0 800 600">
  <defs>
    <linearGradient id="bg" x1="0" y1="0" x2="0" y2="1">
      <stop offset="0" stop-color="#fdeede"/>
      <stop offset="1" stop-color="#fff9f3"/>
    </linearGradient>
  </defs>

  <rect width="800" height="600" fill="url(#bg)"/>
  <circle cx="400" cy="300" r="205" fill="#fbe0c9" opacity="0.55"/>

  <!-- 바닥 그림자 -->
  <ellipse cx="400" cy="487" rx="140" ry="20" fill="#4a382e" opacity="0.10"/>

  <!-- 왼쪽 이어버드 -->
  <rect x="337" y="228" width="19" height="86" rx="9.5" fill="#ffffff" stroke="#e7d2bd" stroke-width="3"/>
  <circle cx="346" cy="222" r="33" fill="#ffffff" stroke="#e7d2bd" stroke-width="3"/>
  <ellipse cx="337" cy="214" rx="9" ry="12" fill="#f4e7d8"/>
  <circle cx="346" cy="290" r="4" fill="#e7d2bd"/>

  <!-- 오른쪽 이어버드 -->
  <rect x="444" y="228" width="19" height="86" rx="9.5" fill="#ffffff" stroke="#e7d2bd" stroke-width="3"/>
  <circle cx="453" cy="222" r="33" fill="#ffffff" stroke="#e7d2bd" stroke-width="3"/>
  <ellipse cx="462" cy="214" rx="9" ry="12" fill="#f4e7d8"/>
  <circle cx="453" cy="290" r="4" fill="#e7d2bd"/>

  <!-- 충전 케이스 -->
  <rect x="288" y="300" width="224" height="172" rx="46" fill="#ffffff" stroke="#e7d2bd" stroke-width="4"/>
  <path d="M288 346 h224" stroke="#f0e2d4" stroke-width="3"/>
  <circle cx="400" cy="430" r="7" fill="#e7d2bd"/>

  <!-- 케이스에 꽂힌 자리 -->
  <rect x="332" y="312" width="29" height="10" rx="5" fill="#f4e7d8"/>
  <rect x="439" y="312" width="29" height="10" rx="5" fill="#f4e7d8"/>
</svg>
